<svg xmlns="http://www.w3.org/2000/svg" width="32" height="32" fill="none" viewBox="0 0 32 32">
  <g>
    <path fill="#0F0D16" d="m10.826 27.951-.936-.407 1.974-4.757c-2.29-.38-4.174-1.45-5.65-3.21C4.738 17.814 4 15.766 4 13.43v-5.1c0-1.192.428-2.212 1.283-3.059S7.156 4 8.338 4c.31 0 .595.023.857.07.261.045.527.13.797.25l6.467 2.721-3.79 1.441v2.841l14.587 9.78.77 4.23h-1.667l-.959-2.415h-7.641V28h-1.026v-5.082h-3.802l-2.105 5.033Zm2.595-6.059h13.194l-4.238-2.825H13.15c-1.348 0-2.52-.475-3.518-1.424-.996-.949-1.495-2.098-1.495-3.448h1.026c0 1.075.388 1.985 1.163 2.73.775.744 1.72 1.116 2.837 1.116h7.67l-9.19-6.156V8.33c0-.926-.318-1.708-.954-2.347-.636-.639-1.424-.958-2.367-.958a3.21 3.21 0 0 0-2.33.947c-.645.632-.967 1.418-.967 2.358v5.115c0 2.346.816 4.34 2.448 5.983 1.632 1.642 3.615 2.463 5.947 2.463ZM8.345 9.152a.794.794 0 0 1-.576-.25.804.804 0 0 1-.251-.589c0-.226.083-.415.25-.567a.844.844 0 0 1 .588-.228.78.78 0 0 1 .567.222.778.778 0 0 1 .228.584c0 .217-.074.41-.222.577a.743.743 0 0 1-.584.25Z"/>
  </g>
</svg>
