<svg xmlns="http://www.w3.org/2000/svg" width="32" height="32" fill="none" viewBox="0 0 32 32">
  <mask id="a" width="32" height="32" x="0" y="0" maskUnits="userSpaceOnUse" style="mask-type:alpha">
    <path fill="#D9D9D9" d="M0 0h32v32H0z"/>
  </mask>
  <g mask="url(#a)">
    <path fill="#0F0D16" d="m10.8 29.233-1.833-.766 2-4.834c-2.445-.533-4.44-1.772-5.984-3.716-1.544-1.945-2.316-4.164-2.316-6.658V7.767c0-1.422.502-2.628 1.508-3.617C5.18 3.161 6.388 2.667 7.8 2.667a4.5 4.5 0 0 1 1.107.133 6.82 6.82 0 0 1 1.06.367l7.8 3.233L12.9 8.2v2.533l15.1 9.6 1.333 6.334h-2.666l-1.267-2.8h-7v5.466h-2v-5.466h-3.367L10.8 29.233Zm2.467-7.366h13.4L23.3 19.733H13.253c-1.524 0-2.847-.51-3.97-1.533C8.161 17.178 7.6 15.911 7.6 14.4h2c0 .956.36 1.75 1.077 2.383.718.634 1.581.95 2.59.95h6.9l-9.267-5.9V7.767c0-.853-.305-1.583-.915-2.19a3.007 3.007 0 0 0-2.2-.91c-.857 0-1.59.3-2.202.9-.61.6-.916 1.333-.916 2.2v5.5c0 2.389.836 4.42 2.508 6.091 1.672 1.673 3.703 2.509 6.092 2.509Zm-5.461-13.1a.973.973 0 0 1-.717-.29.973.973 0 0 1-.289-.716.9.9 0 0 1 .29-.694c.192-.178.43-.267.716-.267.285 0 .516.089.694.267.178.178.267.409.267.694s-.09.524-.267.717a.9.9 0 0 1-.694.289Z"/>
  </g>
</svg>
