<svg xmlns="http://www.w3.org/2000/svg" width="32" height="32" fill="none" viewBox="0 0 32 32">
  <mask id="a" width="32" height="32" x="0" y="0" maskUnits="userSpaceOnUse" style="mask-type:alpha">
    <path fill="#D9D9D9" d="M0 0h32v32H0z"/>
  </mask>
  <g mask="url(#a)">
    <path fill="#0F0D16" d="M16.038 27.333c-3.148 0-5.824-1.102-8.027-3.305-2.204-2.204-3.306-4.88-3.306-8.028 0-3.017 1.024-5.605 3.07-7.763 2.048-2.158 4.554-3.327 7.52-3.506a7.642 7.642 0 0 1 1.107.082 7.065 7.065 0 0 0-1.625 2.305A6.971 6.971 0 0 0 14.172 10c0 2.185.764 4.043 2.294 5.572 1.53 1.53 3.387 2.295 5.572 2.295a6.95 6.95 0 0 0 2.893-.605 6.952 6.952 0 0 0 2.282-1.626 6.987 6.987 0 0 1 .082 1.108c-.171 2.965-1.336 5.472-3.494 7.519-2.158 2.047-4.746 3.07-7.763 3.07Zm0-2c1.956 0 3.712-.539 5.267-1.616a9.35 9.35 0 0 0 3.4-4.217c-.444.111-.889.2-1.333.267-.445.066-.89.1-1.334.1-2.733 0-5.06-.962-6.983-2.884-1.922-1.922-2.883-4.25-2.883-6.983 0-.445.033-.889.1-1.333.066-.445.155-.89.266-1.334a9.35 9.35 0 0 0-4.216 3.4C7.244 12.29 6.705 14.044 6.705 16c0 2.578.911 4.778 2.733 6.6 1.823 1.822 4.023 2.733 6.6 2.733Z"/>
  </g>
</svg>
