<svg xmlns="http://www.w3.org/2000/svg" width="24" height="24" fill="none" viewBox="0 0 24 24">
  <g mask="url(#a)">
    <path fill="#0F0D16" d="m8 17.786 4-4 4 4 .786-.786-4-4 4-4L16 8.214l-4 4-4-4L7.214 9l4 4-4 4 .786.786ZM12.004 23a9.746 9.746 0 0 1-3.9-.787 10.104 10.104 0 0 1-3.177-2.137c-.9-.9-1.614-1.957-2.14-3.174A9.726 9.726 0 0 1 2 13.004a9.74 9.74 0 0 1 .787-3.9 10.105 10.105 0 0 1 2.137-3.177c.9-.9 1.958-1.614 3.174-2.139A9.726 9.726 0 0 1 11.996 3a9.74 9.74 0 0 1 3.9.787 10.107 10.107 0 0 1 3.177 2.137c.9.9 1.614 1.958 2.14 3.174A9.726 9.726 0 0 1 22 12.996a9.747 9.747 0 0 1-.787 3.9 10.106 10.106 0 0 1-2.137 3.177c-.9.9-1.957 1.614-3.174 2.14a9.726 9.726 0 0 1-3.898.787ZM12 21.889c2.482 0 4.583-.861 6.306-2.583 1.722-1.723 2.583-3.825 2.583-6.306 0-2.482-.861-4.583-2.583-6.306C16.583 4.972 14.48 4.111 12 4.111s-4.583.861-6.306 2.583C3.972 8.417 3.111 10.518 3.111 13s.861 4.583 2.583 6.306C7.417 21.028 9.52 21.889 12 21.889Z"/>
  </g>
</svg>
