<svg xmlns="http://www.w3.org/2000/svg" width="32" height="32" fill="none" viewBox="0 0 32 32">
  <g>
    <path fill="#0F0D16" d="M15 6.949V2.026h2v4.923h-2Zm8.097 3.359-1.371-1.372 3.438-3.551 1.418 1.438-3.485 3.485ZM25.051 17v-2h4.923v2h-4.923ZM15 29.974v-4.91h2v4.91h-2Zm-6.072-19.72L5.385 6.836l1.45-1.405 3.485 3.472-1.392 1.35Zm16.215 16.361-3.417-3.551 1.35-1.338 3.493 3.397-1.425 1.492ZM2.027 17v-2H6.95v2H2.026Zm4.797 9.615-1.392-1.451 3.438-3.438.723.682.736.702-3.505 3.505Zm9.18-3.282c-2.036 0-3.768-.712-5.195-2.138-1.428-1.425-2.141-3.156-2.141-5.192s.712-3.768 2.138-5.195c1.425-1.428 3.156-2.141 5.192-2.141s3.768.712 5.195 2.138c1.428 1.425 2.141 3.156 2.141 5.192s-.712 3.768-2.138 5.195c-1.425 1.428-3.156 2.141-5.192 2.141Zm-.003-2c1.467 0 2.722-.522 3.767-1.566 1.044-1.045 1.566-2.3 1.566-3.767s-.522-2.722-1.566-3.767c-1.045-1.044-2.3-1.566-3.767-1.566s-2.722.522-3.767 1.566c-1.044 1.045-1.566 2.3-1.566 3.767s.522 2.722 1.566 3.767c1.045 1.044 2.3 1.566 3.767 1.566Z"/>
  </g>
</svg>
