<svg xmlns="http://www.w3.org/2000/svg" width="32" height="32" fill="none" viewBox="0 0 32 32">
  <g>
    <path fill="#0F0D16" d="M6 28c-.533 0-1-.2-1.4-.6-.4-.4-.6-.867-.6-1.4V6c0-.533.2-1 .6-1.4C5 4.2 5.467 4 6 4h20c.533 0 1 .2 1.4.6.4.4.6.867.6 1.4v20c0 .533-.2 1-.6 1.4-.4.4-.867.6-1.4.6H6Zm0-2h20v-4.533h-4.867a5.862 5.862 0 0 1-2.25 2.05 6.19 6.19 0 0 1-2.883.716c-1 0-1.961-.239-2.883-.716a5.862 5.862 0 0 1-2.25-2.05H6V26Zm10.008-3.767a4.14 4.14 0 0 0 2.459-.783 7.085 7.085 0 0 0 1.866-1.983H26V6H6v13.467h5.667a7.034 7.034 0 0 0 1.874 1.983 4.176 4.176 0 0 0 2.467.783Zm-.008-4.3-5.1-5.1 1.433-1.433L15 14.067v-6.3h2v6.3l2.667-2.667 1.433 1.433-5.1 5.1Z"/>
  </g>
</svg>
