<svg xmlns="http://www.w3.org/2000/svg" width="24" height="24" fill="none" viewBox="0 0 24 24">
  <g>
    <path fill="#0F0D16" d="M12 21a7.805 7.805 0 0 0 3.118-.626 8.068 8.068 0 0 0 2.543-1.713 8.068 8.068 0 0 0 1.713-2.543A7.81 7.81 0 0 0 20 13h-1c0 1.95-.68 3.604-2.038 4.963C15.604 19.32 13.95 20 12 20c-1.95 0-3.604-.68-4.963-2.037C5.68 16.604 5 14.95 5 13c0-1.95.68-3.604 2.037-4.962C8.396 6.679 10.05 6 12 6h.38l-1.626 1.627.707.72 2.847-2.866-2.885-2.866-.708.72L12.381 5H12a7.805 7.805 0 0 0-3.118.626A8.066 8.066 0 0 0 6.339 7.34a8.066 8.066 0 0 0-1.713 2.542A7.805 7.805 0 0 0 4 13c0 1.11.209 2.149.626 3.118a8.06 8.06 0 0 0 1.713 2.543 8.067 8.067 0 0 0 2.543 1.713c.97.418 2.009.626 3.118.626Z"/>
  </g>
</svg>
