<svg xmlns="http://www.w3.org/2000/svg" width="24" height="24" fill="none" viewBox="0 0 24 24">
  <mask id="a" width="24" height="24" x="0" y="0" maskUnits="userSpaceOnUse" style="mask-type:alpha">
    <path fill="#D9D9D9" d="M24 0H0v24h24z"/>
  </mask>
  <g mask="url(#a)">
    <path fill="#0F0D16" d="M12 22c1.25 0 2.42-.238 3.512-.712a9.148 9.148 0 0 0 2.85-1.925 9.148 9.148 0 0 0 1.926-2.85A8.707 8.707 0 0 0 21 13h-2c0 1.95-.68 3.604-2.038 4.962C15.604 19.322 13.95 20 12 20c-1.95 0-3.604-.68-4.963-2.038C5.68 16.604 5 14.95 5 13c0-1.95.68-3.604 2.037-4.963C8.396 6.68 10.05 6 12 6h.15L10.6 7.55 12 9l4-4-4-4-1.4 1.45L12.15 4H12a8.69 8.69 0 0 0-3.512.713 9.148 9.148 0 0 0-2.85 1.925 9.148 9.148 0 0 0-1.925 2.85A8.707 8.707 0 0 0 3 13c0 1.25.237 2.42.712 3.512a9.147 9.147 0 0 0 1.925 2.85 9.149 9.149 0 0 0 2.85 1.926A8.707 8.707 0 0 0 12 22Z"/>
  </g>
</svg>
