<svg xmlns="http://www.w3.org/2000/svg" width="32" height="32" fill="none" viewBox="0 0 32 32">
  <g>
    <path fill="#0F0D16" d="m16.054 20.974 4.308-4.307a2.48 2.48 0 0 0 .682-1.281 2.364 2.364 0 0 0-.154-1.455 2.681 2.681 0 0 0-.923-1.137 2.343 2.343 0 0 0-1.385-.435c-.513 0-.974.157-1.384.472-.41.314-.792.648-1.144 1a15.384 15.384 0 0 0-1.147-1 2.15 2.15 0 0 0-1.368-.472c-.513 0-.978.14-1.395.418a2.547 2.547 0 0 0-.934 1.12 2.39 2.39 0 0 0-.15 1.468c.105.502.334.936.686 1.302l4.308 4.307Zm-3.13 7.692-.508-4.061a6.122 6.122 0 0 1-1.1-.503 7.078 7.078 0 0 1-1.006-.692L6.55 25l-3.077-5.333 3.254-2.46a6.677 6.677 0 0 1-.066-.597 9.34 9.34 0 0 1 0-1.175 9.81 9.81 0 0 1 .066-.643l-3.254-2.459L6.55 7.026l3.748 1.577a8.532 8.532 0 0 1 1.03-.7 6.8 6.8 0 0 1 1.076-.508l.52-4.062h6.154l.508 4.075c.4.145.762.315 1.086.509.323.194.65.422.98.686l3.8-1.577 3.077 5.307-3.305 2.498c.048.215.074.416.078.604.005.187.007.375.007.565 0 .181-.005.365-.013.552a4 4 0 0 1-.092.643l3.28 2.472L25.404 25l-3.754-1.603c-.33.264-.666.496-1.01.699a6.1 6.1 0 0 1-1.056.496l-.508 4.075h-6.154Zm1.743-2h2.62l.48-3.571a7.433 7.433 0 0 0 1.865-.758 8.24 8.24 0 0 0 1.63-1.263l3.312 1.393 1.313-2.267-2.892-2.18a5.46 5.46 0 0 0 .227-1.015 8.364 8.364 0 0 0 0-2.01 5.215 5.215 0 0 0-.227-.99l2.918-2.205L24.6 9.533l-3.351 1.413a7.096 7.096 0 0 0-1.604-1.264 6.891 6.891 0 0 0-1.891-.777l-.42-3.572h-2.647l-.44 3.56c-.681.16-1.31.406-1.885.738a7.944 7.944 0 0 0-1.65 1.282L7.4 9.533 6.087 11.8l2.88 2.146a4.858 4.858 0 0 0-.234.987 8.377 8.377 0 0 0 0 2.1c.045.334.118.663.22.987L6.088 20.2 7.4 22.467l3.3-1.4c.506.52 1.047.945 1.623 1.276a7.542 7.542 0 0 0 1.91.765l.434 3.559Z"/>
  </g>
</svg>
