<svg xmlns="http://www.w3.org/2000/svg" width="32" height="32" fill="none" viewBox="0 0 32 32">
  <mask id="a" width="32" height="32" x="0" y="0" maskUnits="userSpaceOnUse" style="mask-type:alpha">
    <path fill="#D9D9D9" d="M0 0h32v32H0z"/>
  </mask>
  <g mask="url(#a)">
    <path fill="#0F0D16" d="M7 28a1.73 1.73 0 0 1-1.271-.529A1.733 1.733 0 0 1 5.2 26.2V11.71a1.802 1.802 0 0 1-.855-.642A1.737 1.737 0 0 1 4 10V5.8c0-.495.176-.919.529-1.271A1.733 1.733 0 0 1 5.8 4h20.4c.495 0 .919.176 1.271.529.353.352.529.776.529 1.271V10c0 .405-.115.76-.345 1.068-.23.308-.515.522-.855.642V26.2c0 .495-.176.919-.529 1.271A1.733 1.733 0 0 1 25 28H7Zm0-16.2v14.4h18V11.8H7ZM5.8 10h20.4V5.8H5.8V10Zm6.6 7.8h7.2V16h-7.2v1.8Z"/>
  </g>
</svg>
