<svg xmlns="http://www.w3.org/2000/svg" width="24" height="24" fill="none" viewBox="0 0 24 24">
  <g>
    <path fill="#0F0D16" d="M14.96 5.096a.759.759 0 0 1-.559-.229.764.764 0 0 1-.228-.56c0-.221.076-.408.229-.56a.765.765 0 0 1 .56-.228c.222 0 .408.077.56.23a.762.762 0 0 1 .228.56.759.759 0 0 1-.229.56.764.764 0 0 1-.56.227Zm-.057 15.385a.759.759 0 0 1-.56-.23.764.764 0 0 1-.228-.56.76.76 0 0 1 .23-.56.765.765 0 0 1 .56-.227c.221 0 .408.076.56.229.151.152.227.34.227.56a.759.759 0 0 1-.229.56.765.765 0 0 1-.56.228Zm4-12.116a.759.759 0 0 1-.56-.229.764.764 0 0 1-.228-.56.76.76 0 0 1 .23-.56.764.764 0 0 1 .56-.228c.221 0 .407.077.56.23a.765.765 0 0 1 .227.56.759.759 0 0 1-.229.56.765.765 0 0 1-.56.227Zm-.058 8.904a.759.759 0 0 1-.56-.229.764.764 0 0 1-.227-.56c0-.221.076-.408.229-.56a.764.764 0 0 1 .56-.228.76.76 0 0 1 .56.23.762.762 0 0 1 .228.56.76.76 0 0 1-.23.56.765.765 0 0 1-.56.227Zm1.366-4.48a.759.759 0 0 1-.56-.23.764.764 0 0 1-.228-.56c0-.221.076-.408.23-.56a.764.764 0 0 1 .56-.228c.22 0 .407.077.56.23a.765.765 0 0 1 .227.56.759.759 0 0 1-.229.56.764.764 0 0 1-.56.228ZM12 21a8.764 8.764 0 0 1-3.507-.709 9.094 9.094 0 0 1-2.859-1.922 9.085 9.085 0 0 1-1.925-2.857A8.753 8.753 0 0 1 3 12.003c0-1.244.236-2.414.709-3.51a9.094 9.094 0 0 1 1.924-2.859A9.089 9.089 0 0 1 8.49 3.709 8.76 8.76 0 0 1 12 3v1c-2.233 0-4.125.775-5.675 2.325C4.775 7.875 4 9.767 4 12c0 2.233.775 4.125 2.325 5.675C7.875 19.225 9.767 20 12 20v1Zm0-7.5c-.422 0-.777-.145-1.066-.434A1.45 1.45 0 0 1 10.5 12c0-.122.01-.235.032-.34a.924.924 0 0 1 .12-.3L8.712 9.4l.688-.688 1.96 1.94c.08-.042.293-.093.64-.152.422 0 .777.145 1.066.434.29.289.434.644.434 1.066 0 .422-.145.777-.434 1.066-.289.29-.644.434-1.066.434Z"/>
  </g>
</svg>
