<svg xmlns="http://www.w3.org/2000/svg" width="24" height="24" fill="none" viewBox="0 0 24 24">
  <mask id="a" width="24" height="24" x="0" y="0" maskUnits="userSpaceOnUse" style="mask-type:alpha">
    <path fill="#FF6BE9" d="M0 0h24v24H0z"/>
  </mask>
  <g mask="url(#a)">
    <path fill="#0F0D16" d="M11.995 17.392a1.55 1.55 0 0 0 1.134-.456c.307-.304.46-.68.46-1.129 0-.449-.151-.83-.455-1.146a1.506 1.506 0 0 0-1.129-.472 1.52 1.52 0 0 0-1.134.472 1.58 1.58 0 0 0-.46 1.146c0 .45.151.825.455 1.13.303.303.68.455 1.129.455Zm-1.447-4.424h2.904v-6.06h-2.904v6.06ZM12 22c-1.398 0-2.703-.262-3.917-.785a10.07 10.07 0 0 1-3.166-2.132 10.07 10.07 0 0 1-2.132-3.166C2.262 14.703 2 13.397 2 12c0-1.398.262-2.703.785-3.917a10.07 10.07 0 0 1 2.132-3.166 10.07 10.07 0 0 1 3.166-2.132C9.297 2.262 10.603 2 12 2c1.398 0 2.703.262 3.917.785a10.07 10.07 0 0 1 3.166 2.132 10.07 10.07 0 0 1 2.132 3.166C21.738 9.297 22 10.603 22 12c0 1.398-.262 2.703-.785 3.917a10.07 10.07 0 0 1-2.132 3.166 10.07 10.07 0 0 1-3.166 2.132c-1.214.523-2.52.785-3.917.785Z"/>
  </g>
</svg>
